<?xml version="1.0" encoding="UTF-8"?>
<svg width="32px" height="36px" viewBox="0 0 32 36" version="1.1" xmlns="http://www.w3.org/2000/svg" xmlns:xlink="http://www.w3.org/1999/xlink">
    <!-- Generator: Sketch 58 (84663) - https://sketch.com -->
    <title>1备份</title>
    <desc>Created with Sketch.</desc>
    <defs>
        <linearGradient x1="50%" y1="21.6805102%" x2="50%" y2="87.5853766%" id="linearGradient-1">
            <stop stop-color="#FFFFFF" offset="0%"></stop>
            <stop stop-color="#D8E0F4" offset="100%"></stop>
        </linearGradient>
        <linearGradient x1="50%" y1="0%" x2="50%" y2="100%" id="linearGradient-2">
            <stop stop-color="#F8334C" offset="0%"></stop>
            <stop stop-color="#4E284D" offset="100%"></stop>
        </linearGradient>
    </defs>
    <g id="King-Dot-Web-组件库官网" stroke="none" stroke-width="1" fill="none" fill-rule="evenodd">
        <g id="组件状态_dark" transform="translate(-24.000000, -155.000000)">
            <g id="顶部tab" transform="translate(0.000000, 139.000000)">
                <g id="1备份" transform="translate(24.000000, 16.000000)">
                    <path d="M22.6618834,3.48601458 L30.4954873,8.04555086 C31.3219803,8.52660975 31.8438133,9.39931256 31.8842376,10.3550333 L31.8867705,10.4749085 L31.8867705,19.5873652 L28.1766256,21.7473652 L28.1766256,12.4594405 L20.6766159,16.7636104 C20.1303382,17.0785 19.4343229,16.8886196 19.1201151,16.3389805 C18.819225,15.8126377 18.9782583,15.1461572 19.4713064,14.8125482 L19.5375009,14.7709606 L27.0992922,10.386869 L18.9517385,5.64507951 L22.6618834,3.48601458 Z M4.17344928,24.9995963 L11.4573913,29.2387132 L15.0130313,31.2930509 L15.012594,22.0714574 C15.012594,21.4258097 15.5317358,20.9024542 16.1721295,20.9024542 C16.7869396,20.9024542 17.2900004,21.3847992 17.3292699,21.9945948 L17.3317375,22.0714574 L17.3318719,31.2967911 L23.0122495,27.9927017 L31.8867705,22.8273652 L31.8867705,25.5250712 C31.8867705,26.4871848 31.3979866,27.3791375 30.5971749,27.8922946 L30.4954611,27.9544441 L17.5665307,35.479518 C16.7414558,35.9597395 15.7328996,35.9797441 14.8925387,35.5395334 L14.7849275,35.4798041 L14.7840079,35.4927478 L1.85507747,27.9676738 C0.994132524,27.4665748 0.463768116,26.5405026 0.463768116,25.538301 L0.463768116,10.4749609 C0.463768116,9.51283081 0.952534666,8.62085585 1.75335714,8.1076877 L1.85507246,8.04553696 L14.7839458,0.520460111 C15.6089978,0.0402496385 16.6175243,0.0202304822 17.4578751,0.460406391 L17.5665035,0.520430443 L19.8792748,1.86648211 L13.3667246,5.655908 L13.2526377,5.7237002 L13.2562023,5.72876782 L10.5024928,7.3306093 L5.27489855,10.385934 L12.7871657,14.7588106 C13.326183,15.0846807 13.5011,15.7893573 13.1778536,16.3327497 C12.8613362,16.8648305 12.1953644,17.0576766 11.6507809,16.788182 L11.5804753,16.7503985 L4.17430671,12.444947 L4.17415103,23.1308498 L4.17344928,24.9995963 Z" id="形状" fill="url(#linearGradient-1)" transform="translate(16.175269, 17.999988) scale(-1, 1) translate(-16.175269, -17.999988) "></path>
                    <ellipse id="椭圆形" fill="url(#linearGradient-2)" cx="16.2318841" cy="17.7662338" rx="2.31884058" ry="2.33766234"></ellipse>
                </g>
            </g>
        </g>
    </g>
</svg>